<svg xmlns="http://www.w3.org/2000/svg" xmlns:xlink="http://www.w3.org/1999/xlink" width="1920" zoomAndPan="magnify" viewBox="0 0 1440 809.999993" height="1080" preserveAspectRatio="xMidYMid meet" version="1.0"><path fill="#000000" d="M 860.835938 67.066406 C 820.414062 67.066406 787.652344 99.816406 787.652344 140.222656 C 787.652344 180.632812 820.414062 213.378906 860.835938 213.378906 C 901.257812 213.378906 934.019531 180.632812 934.019531 140.222656 C 934.019531 99.816406 901.257812 67.066406 860.835938 67.066406 Z M 784.449219 228.011719 C 768.328125 228.011719 753.003906 236.011719 744.199219 249.5 L 630.765625 422.789062 C 625.960938 430.445312 626.246094 439.304688 629.851562 447.019531 L 590.96875 503.257812 L 542.945312 469.882812 C 523.960938 456.738281 497.660156 461.421875 484.394531 480.398438 L 401.605469 598.820312 C 393.773438 610.132812 390.972656 624.136719 393.375 637.683594 C 395.660156 650.3125 402.523438 660.945312 412.585938 668.773438 C 423.449219 641.910156 449.578125 623.050781 480.28125 623.050781 C 499.546875 623.050781 517.042969 630.480469 530.136719 642.710938 L 655.007812 462.109375 C 662.78125 461.480469 670.101562 457.308594 674.675781 450.222656 L 762.953125 322.65625 L 746.027344 413.644531 C 741.285156 439.191406 745.742188 465.253906 758.835938 487.714844 L 894.226562 725.46875 C 899.488281 734.5 908.921875 740.101562 919.382812 740.101562 C 940.597656 740.101562 954.890625 718.382812 946.371094 698.949219 L 845.285156 465.308594 L 874.101562 311.683594 C 882.335938 268.1875 848.886719 228.011719 804.578125 228.011719 Z M 886.449219 325.398438 L 871.355469 404.5 L 953.230469 471.253906 C 963.410156 479.539062 978.617188 478.113281 987.078125 468.050781 C 995.65625 457.878906 994.054688 442.734375 983.878906 434.21875 L 900.171875 363.804688 Z M 736.882812 488.171875 L 711.722656 575.042969 L 631.222656 698.035156 C 623.558594 709.695312 625.847656 725.46875 636.710938 734.15625 C 648.660156 743.699219 665.984375 741.359375 675.132812 729.128906 L 760.667969 615.277344 L 782.164062 567.269531 Z M 480.28125 652.3125 C 456.09375 652.3125 436.371094 672.03125 436.371094 696.207031 C 436.371094 720.382812 456.09375 740.101562 480.28125 740.101562 C 504.464844 740.101562 524.191406 720.382812 524.191406 696.207031 C 524.191406 672.03125 504.464844 652.3125 480.28125 652.3125 Z M 480.28125 652.3125 " fill-opacity="1" fill-rule="nonzero"/></svg>